<?xml version="1.0" encoding="utf-8"?>
<!-- Generator: Adobe Illustrator 21.1.0, SVG Export Plug-In . SVG Version: 6.00 Build 0)  -->
<svg version="1.1" id="Group_531" xmlns="http://www.w3.org/2000/svg" xmlns:xlink="http://www.w3.org/1999/xlink" x="0px" y="0px"
	 viewBox="0 0 238.3 71.9" style="enable-background:new 0 0 238.3 71.9;" xml:space="preserve">
<style type="text/css">
	.st0{fill:#FFFFFF;}
	.st1{enable-background:new    ;}
</style>
<g id="Path_2">
	<path class="st0" d="M47.9,33.2L47.9,33.2L36,26.3l-2.7-3.7l-8.2-2.6l-2,3.6l6.3,5.8l4.6,0.5l11.9,6.9L44.6,39L55,45.1v4.8L31,63.8
		l-24-13.9v-9.6l-6.9-4v17.7l31,18l31-18V38.4L49.2,31L47.9,33.2z M31,0L0,18v14.2l22.5,13.1l0.1,0.1c-0.1,1,0,2,0.2,3l0.2,0.5
		c1.4,4.4,6.1,6.8,10.5,5.4c1.1-0.4,2.1-0.9,2.9-1.7l-6.8-3.9c-0.3-0.2-0.6-0.5-0.9-0.8c-0.6-0.9-0.7-2.1-0.1-3
		c0.4-0.6,1-1.1,1.7-1.3c0.3-0.1,0.7-0.1,1-0.1c0.4,0,0.8,0.2,1.1,0.3l6.9,4c0.2-1.3,0.2-2.5-0.1-3.8c-1.2-4.3-5.5-6.9-9.8-6.1
		l-0.5,0.1c-1,0.3-1.9,0.7-2.7,1.3L6.9,28v-6.1L31,8l24,13.9v8.3l6.9,4V18L31,0z"/>
</g>
<g class="st1">
	<path class="st0" d="M78.8,44.9c-1.3-1-2.2-2.3-2.7-4l3.4-1.4c0.3,1,0.7,1.8,1.4,2.5c0.6,0.6,1.5,0.9,2.4,0.9
		c0.8,0,1.5-0.2,2.1-0.6c0.6-0.4,0.9-1,0.9-1.7c0-0.7-0.3-1.3-0.8-1.8c-0.5-0.5-1.5-0.9-2.9-1.5l-1.2-0.4c-1.2-0.4-2.3-1.1-3.2-2
		c-0.9-0.9-1.3-2-1.3-3.4c0-1,0.3-1.9,0.8-2.8c0.5-0.8,1.3-1.5,2.2-2c1-0.5,2-0.7,3.2-0.7c1.7,0,3.1,0.4,4.1,1.2
		c1,0.8,1.7,1.8,2.1,2.9l-3.2,1.4c-0.2-0.6-0.5-1.1-1-1.5c-0.5-0.4-1.1-0.6-1.9-0.6c-0.8,0-1.4,0.2-2,0.6c-0.5,0.4-0.8,0.9-0.8,1.4
		c0,0.6,0.2,1.1,0.7,1.5c0.5,0.4,1.3,0.8,2.4,1.2l1.2,0.4c1.7,0.6,3,1.3,3.8,2.3c0.9,0.9,1.3,2.2,1.3,3.7c0,1.3-0.3,2.3-1,3.2
		c-0.6,0.9-1.5,1.5-2.5,2c-1,0.4-2.1,0.6-3.1,0.6C81.6,46.3,80.1,45.8,78.8,44.9z"/>
	<path class="st0" d="M95.7,45.4c-1.1-0.6-2-1.5-2.6-2.6c-0.6-1.1-0.9-2.4-0.9-3.7c0-1.3,0.3-2.5,0.9-3.7c0.6-1.1,1.5-2,2.5-2.7
		c1.1-0.7,2.3-1,3.6-1c1.4,0,2.6,0.3,3.7,0.9c1,0.6,1.8,1.4,2.3,2.5c0.5,1.1,0.8,2.2,0.8,3.5c0,0.4,0,0.8-0.1,1.2H95.6
		c0.2,1.1,0.6,1.9,1.3,2.5c0.7,0.6,1.5,0.9,2.5,0.9c0.8,0,1.5-0.2,2.1-0.5c0.6-0.4,1-0.8,1.4-1.4l2.9,1.4c-1.4,2.4-3.5,3.7-6.4,3.7
		C98,46.3,96.8,46,95.7,45.4z M102.6,37.3c0-0.4-0.2-0.9-0.5-1.3c-0.3-0.4-0.7-0.8-1.2-1.1s-1.1-0.4-1.7-0.4c-0.8,0-1.6,0.2-2.2,0.7
		s-1,1.2-1.3,2H102.6z"/>
	<path class="st0" d="M108.7,32.1h3.3v1.8h0.2c0.3-0.6,0.9-1.2,1.6-1.6c0.7-0.4,1.5-0.6,2.4-0.6c0.6,0,1.2,0.1,1.7,0.3v3.5
		c-0.5-0.2-0.9-0.3-1.2-0.4s-0.7-0.1-1.1-0.1c-1,0-1.9,0.4-2.5,1.1c-0.6,0.8-0.9,1.7-0.9,2.9v6.9h-3.5V32.1z"/>
	<path class="st0" d="M119.2,32.1h4l3.5,9h0.2l3.5-9h4l-5.9,13.8H125L119.2,32.1z"/>
	<path class="st0" d="M136.7,29.9c-0.5-0.4-0.7-1-0.7-1.6c0-0.6,0.2-1.2,0.7-1.6c0.4-0.4,1-0.7,1.6-0.7c0.6,0,1.2,0.2,1.6,0.7
		c0.4,0.4,0.7,1,0.7,1.6c0,0.6-0.2,1.2-0.7,1.6c-0.4,0.5-1,0.7-1.6,0.7C137.7,30.6,137.1,30.4,136.7,29.9z M136.5,32.1h3.5v13.8
		h-3.5V32.1z"/>
	<path class="st0" d="M146.4,45.4c-1.1-0.6-2-1.5-2.6-2.6c-0.6-1.1-0.9-2.4-0.9-3.8c0-1.4,0.3-2.7,0.9-3.8c0.6-1.1,1.5-2,2.6-2.6
		s2.3-0.9,3.7-0.9c1.5,0,2.8,0.3,3.9,1c1.1,0.7,1.9,1.6,2.4,2.8l-3.2,1.3c-0.6-1.2-1.6-1.8-3.1-1.8c-1.1,0-2,0.4-2.7,1.1
		c-0.7,0.7-1,1.7-1,2.9c0,1.2,0.3,2.2,1,2.9c0.7,0.7,1.6,1.1,2.7,1.1c1.5,0,2.6-0.6,3.2-1.9l3.2,1.4c-0.6,1.2-1.4,2.1-2.5,2.8
		c-1.1,0.7-2.4,1-3.9,1C148.7,46.3,147.5,46,146.4,45.4z"/>
	<path class="st0" d="M161.7,45.4c-1.1-0.6-2-1.5-2.6-2.6c-0.6-1.1-0.9-2.4-0.9-3.7c0-1.3,0.3-2.5,0.9-3.7c0.6-1.1,1.5-2,2.5-2.7
		c1.1-0.7,2.3-1,3.6-1c1.4,0,2.6,0.3,3.7,0.9c1,0.6,1.8,1.4,2.3,2.5c0.5,1.1,0.8,2.2,0.8,3.5c0,0.4,0,0.8-0.1,1.2h-10.3
		c0.2,1.1,0.6,1.9,1.3,2.5c0.7,0.6,1.5,0.9,2.5,0.9c0.8,0,1.5-0.2,2.1-0.5c0.6-0.4,1-0.8,1.4-1.4l2.9,1.4c-1.4,2.4-3.5,3.7-6.4,3.7
		C164.1,46.3,162.8,46,161.7,45.4z M168.7,37.3c0-0.4-0.2-0.9-0.5-1.3c-0.3-0.4-0.7-0.8-1.2-1.1s-1.1-0.4-1.7-0.4
		c-0.8,0-1.6,0.2-2.2,0.7c-0.6,0.5-1,1.2-1.3,2H168.7z"/>
	<path class="st0" d="M181.6,26.6h7.6c1.1,0,2.1,0.2,3,0.7c0.9,0.5,1.6,1.1,2.1,1.8c0.5,0.8,0.8,1.6,0.8,2.5c0,1-0.2,1.8-0.7,2.5
		c-0.5,0.7-1.1,1.3-1.9,1.6V36c1,0.4,1.8,0.9,2.4,1.7c0.6,0.8,0.9,1.7,0.9,2.8c0,1.1-0.3,2-0.9,2.8c-0.6,0.8-1.3,1.4-2.3,1.9
		c-1,0.4-2,0.7-3.2,0.7h-7.8V26.6z M188.9,34.4c0.8,0,1.4-0.2,1.9-0.7c0.5-0.4,0.7-1,0.7-1.7c0-0.6-0.2-1.2-0.7-1.6
		s-1.1-0.7-1.8-0.7h-3.8v4.6H188.9z M189.3,42.6c0.9,0,1.6-0.2,2.1-0.7c0.5-0.5,0.7-1.1,0.7-1.8s-0.3-1.3-0.8-1.8
		c-0.5-0.5-1.2-0.7-2.2-0.7h-3.9v5H189.3z"/>
	<path class="st0" d="M203.1,45c-1.5-0.9-2.8-2.1-3.6-3.7c-0.9-1.5-1.3-3.2-1.3-5.1c0-1.9,0.4-3.6,1.3-5.1s2.1-2.8,3.6-3.7
		c1.5-0.9,3.3-1.3,5.1-1.3s3.6,0.4,5.1,1.3c1.5,0.9,2.7,2.1,3.6,3.7c0.9,1.5,1.3,3.2,1.3,5.1c0,1.9-0.4,3.6-1.3,5.1
		c-0.9,1.5-2.1,2.8-3.6,3.7c-1.5,0.9-3.3,1.3-5.1,1.3S204.6,45.9,203.1,45z M211.5,42c1-0.6,1.8-1.3,2.3-2.3c0.6-1,0.9-2.2,0.9-3.5
		s-0.3-2.4-0.9-3.5c-0.6-1-1.3-1.8-2.3-2.3s-2.1-0.8-3.3-0.8c-1.2,0-2.3,0.3-3.3,0.8s-1.8,1.3-2.3,2.3c-0.6,1-0.9,2.2-0.9,3.5
		s0.3,2.4,0.9,3.5c0.6,1,1.3,1.8,2.3,2.3c1,0.6,2.1,0.8,3.3,0.8C209.4,42.9,210.5,42.6,211.5,42z"/>
	<path class="st0" d="M225.4,35.8l-5.8-9.2h4.5l3.8,6.3h0.2l3.7-6.3h4.5l-5.9,9.2l6.3,10.1h-4.5l-4.2-7h-0.2l-4.2,7h-4.5L225.4,35.8
		z"/>
</g>
</svg>
