<svg xmlns="http://www.w3.org/2000/svg" width="54.578" height="64.795" viewBox="0 0 54.578 64.795">
  <path id="Apple_logo_black" d="M70.2,54.494a35.228,35.228,0,0,1-3.484,6.263,31.821,31.821,0,0,1-4.488,5.423,8.705,8.705,0,0,1-5.767,2.54,14.456,14.456,0,0,1-5.327-1.272A15.286,15.286,0,0,0,45.4,66.181a15.8,15.8,0,0,0-5.9,1.268,15.868,15.868,0,0,1-5.1,1.34q-2.957.126-5.9-2.608a33.415,33.415,0,0,1-4.693-5.615,38.836,38.836,0,0,1-4.963-9.859,36.1,36.1,0,0,1-2.084-11.75A21.457,21.457,0,0,1,19.588,27.73a16.529,16.529,0,0,1,5.9-5.969,15.875,15.875,0,0,1,7.978-2.251,18.786,18.786,0,0,1,6.171,1.436,19.838,19.838,0,0,0,4.895,1.439,29.288,29.288,0,0,0,5.427-1.7,17.94,17.94,0,0,1,7.377-1.31q8.177.66,12.271,6.46-7.313,4.431-7.239,12.4a13.679,13.679,0,0,0,4.492,10.306,14.76,14.76,0,0,0,4.488,2.944q-.54,1.566-1.144,3ZM57.7,5.3a13.823,13.823,0,0,1-3.544,9.067c-2.848,3.329-6.292,5.253-10.027,4.949a10.088,10.088,0,0,1-.075-1.228,14.2,14.2,0,0,1,3.759-9.162,14.473,14.473,0,0,1,4.58-3.438A13.654,13.654,0,0,1,57.634,4,11.769,11.769,0,0,1,57.7,5.3Z" transform="translate(-16.77 -3.999)" fill="#44464b"/>
</svg>
