<svg xmlns="http://www.w3.org/2000/svg" width="181.662" height="59.8" viewBox="0 0 181.662 59.8">
  <g id="Google_2015_logo" transform="translate(-0.36 -0.47)">
    <path id="Path_59" data-name="Path 59" d="M101.231,39.943a14.99,14.99,0,0,1-29.981,0,14.99,14.99,0,0,1,29.981,0Zm-6.562,0c0-5.376-3.9-9.055-8.428-9.055s-8.428,3.679-8.428,9.055c0,5.322,3.9,9.055,8.428,9.055S94.669,45.259,94.669,39.943Z" transform="translate(-23.13 -8.004)" fill="#44464b"/>
    <path id="Path_60" data-name="Path 60" d="M149.231,39.943a14.99,14.99,0,0,1-29.981,0,14.99,14.99,0,0,1,29.981,0Zm-6.562,0c0-5.376-3.9-9.055-8.428-9.055s-8.428,3.679-8.428,9.055c0,5.322,3.9,9.055,8.428,9.055S142.669,45.259,142.669,39.943Z" transform="translate(-38.791 -8.004)" fill="#44464b"/>
    <path id="Path_61" data-name="Path 61" d="M195.877,25.9V52.73c0,11.036-6.508,15.543-14.2,15.543a14.23,14.23,0,0,1-13.245-8.806l5.713-2.378a8.254,8.254,0,0,0,7.525,5.3c4.925,0,7.977-3.038,7.977-8.758V51.484h-.229a10.174,10.174,0,0,1-7.869,3.4c-7.472,0-14.317-6.508-14.317-14.883,0-8.435,6.845-15,14.317-15a10.355,10.355,0,0,1,7.869,3.342h.229V25.91h6.232ZM190.11,40c0-5.262-3.51-9.109-7.977-9.109-4.527,0-8.32,3.847-8.32,9.109,0,5.208,3.793,9,8.32,9C186.6,49,190.11,45.2,190.11,40Z" transform="translate(-54.446 -8.004)" fill="#44464b"/>
    <path id="Path_62" data-name="Path 62" d="M221.9,3V46.792h-6.4V3Z" transform="translate(-70.196 -0.825)" fill="#44464b"/>
    <path id="Path_63" data-name="Path 63" d="M251.276,44.858l5.093,3.4a14.874,14.874,0,0,1-12.45,6.623A14.621,14.621,0,0,1,229.09,39.933c0-8.886,6.394-14.943,14.094-14.943,7.755,0,11.548,6.171,12.787,9.506l.68,1.7-19.976,8.273a7.605,7.605,0,0,0,7.242,4.527,8.528,8.528,0,0,0,7.357-4.137ZM235.6,39.482l13.353-5.545c-.734-1.866-2.944-3.166-5.545-3.166A8.2,8.2,0,0,0,235.6,39.482Z" transform="translate(-74.63 -8)" fill="#44464b"/>
    <path id="Path_64" data-name="Path 64" d="M23.893,28.052v-6.34H45.257a21.006,21.006,0,0,1,.317,3.827c0,4.756-1.3,10.638-5.491,14.829C36.007,44.612,30.8,46.876,23.9,46.876,11.113,46.876.36,36.46.36,23.673S11.113.47,23.9.47A22.109,22.109,0,0,1,39.8,6.864l-4.474,4.474A16.16,16.16,0,0,0,23.893,6.81,16.644,16.644,0,0,0,7.252,23.673,16.644,16.644,0,0,0,23.893,40.536a15.523,15.523,0,0,0,11.716-4.642,13.14,13.14,0,0,0,3.436-7.849Z" transform="translate(0 0)" fill="#44464b"/>
  </g>
</svg>
