<svg id="HTC" xmlns="http://www.w3.org/2000/svg" width="138.57" height="46" viewBox="0 0 138.57 46">
  <path id="path38" d="M202.151,47.514c-7.332.048-14.276.106-16.213-.066a7.045,7.045,0,0,1-6.838-6.673,35.056,35.056,0,0,1-.011-6.476c.355-3.672,3.426-7.167,6.849-7.336,1.226-.066,4.506-.059,10.447-.033l17.289.033V19.793s-13.771-.015-17.911-.033c-5.557-.026-8.353-.029-10.125.033a13.893,13.893,0,0,0-9.7,4.114,16.063,16.063,0,0,0-4.052,10.228,50.228,50.228,0,0,0,0,6.523c.4,4.217,1.764,7.526,4.052,9.843a14.352,14.352,0,0,0,9.7,4.114c2.9.037,28.033,0,28.033,0V47.448s-7.632.029-11.523.066" transform="translate(-75.105 -8.632)" fill="#44464b"/>
  <path id="path40" d="M87.067,20.515v7.164h17.058v27.15h7.2V27.678h17.058V20.515H87.067Z" transform="translate(-38.067 -8.969)" fill="#44464b"/>
  <path id="path50" d="M41.522,25.093a13.817,13.817,0,0,0-4.052-9.843,15.531,15.531,0,0,0-9.7-4.111c-2.39-.135-11.809-.092-14.02,0A12.2,12.2,0,0,0,7.226,13.05c-.011.007-.022,0-.022-.015V0H0V45.984H7.193s-.143-18.823.018-20.872A7.3,7.3,0,0,1,13.786,18.3c2.826-.242,11.307-.176,13.969,0a7.064,7.064,0,0,1,6.563,6.955c.07,1.417,0,20.726,0,20.726h7.208s.018-19.236,0-20.891" fill="#44464b"/>
</svg>
