<svg xmlns="http://www.w3.org/2000/svg" width="58.677" height="58.681" viewBox="0 0 58.677 58.681">
  <g id="Group_527" data-name="Group 527" transform="translate(-462.111 -6864.547)">
    <path id="Path_65" data-name="Path 65" d="M337.961-141.423H283.74a2.228,2.228,0,0,1-2.228-2.228v-54.225a2.227,2.227,0,0,1,2.228-2.227h54.222a2.227,2.227,0,0,1,2.228,2.227v54.225a2.228,2.228,0,0,1-2.228,2.228" transform="translate(180.599 7064.65)" fill="#44464b" fill-rule="evenodd"/>
    <g id="Group_526" data-name="Group 526" transform="translate(474.419 6883.003)">
      <path id="Path_66" data-name="Path 66" d="M323.493-183.459h-4.616a.354.354,0,0,0-.358.351v21.063a.354.354,0,0,0,.358.349h4.616a.356.356,0,0,0,.358-.349v-21.063a.356.356,0,0,0-.358-.351" transform="translate(-289.791 183.459)" fill="#fff"/>
      <path id="Path_67" data-name="Path 67" d="M310.552-183.459H292.969a.353.353,0,0,0-.357.351v21.063a.353.353,0,0,0,.357.349h4.617a.356.356,0,0,0,.359-.349v-16.532a.354.354,0,0,1,.357-.349h9.946a3.372,3.372,0,0,1,3.591,3.524v13.357a.355.355,0,0,0,.358.349h4.615a.355.355,0,0,0,.358-.349v-14.942a5.969,5.969,0,0,0-1.738-4.565,6.234,6.234,0,0,0-4.878-1.907" transform="translate(-292.612 183.459)" fill="#fff"/>
      <path id="Path_68" data-name="Path 68" d="M306.385-175.893h-4.848a.356.356,0,0,0-.36.35v12.677a.356.356,0,0,0,.36.349h4.848a.354.354,0,0,0,.357-.349v-12.677a.354.354,0,0,0-.357-.35" transform="translate(-291.679 184.283)" fill="#fff"/>
    </g>
  </g>
</svg>
